<svg width="259" height="221" viewBox="0 0 259 221" fill="none" xmlns="http://www.w3.org/2000/svg">
<path d="M24.3593 41.6604L24.9553 44.6564C27.4479 57.1863 32.1015 69.187 38.7079 80.1216L39.7105 81.7811" stroke="#3FB3F5" stroke-width="4" stroke-linecap="round"/>
<path d="M48.7451 92.9477L49.835 93.9461C55.6949 99.3141 62.0497 104.116 68.8143 108.286L70.4166 109.274" stroke="#3FB3F5" stroke-width="4" stroke-linecap="round"/>
<path d="M84.3811 113.498L84.6277 113.606C93.0984 117.321 102.621 117.873 111.464 115.162V115.162" stroke="#3FB3F5" stroke-width="4" stroke-linecap="round"/>
<path d="M123.131 107.76V107.76C130.113 103.251 132.583 94.2095 128.862 86.7759L128.096 85.2455" stroke="#3FB3F5" stroke-width="4" stroke-linecap="round"/>
<path d="M116.123 75.4687V75.4687C108.203 72.9451 99.6526 76.7859 96.2794 84.3825L95.5851 85.9459" stroke="#3FB3F5" stroke-width="4" stroke-linecap="round"/>
<path d="M90.9247 101.566V101.566C92.7013 116.483 100.054 130.177 111.508 139.899L122.294 149.055" stroke="#3FB3F5" stroke-width="4" stroke-linecap="round"/>
<path d="M135.388 156.914L136.033 157.361C145.334 163.804 156.23 167.562 167.524 168.223V168.223" stroke="#3FB3F5" stroke-width="4" stroke-linecap="round"/>
<path d="M180.552 171.998C179.448 172.033 178.524 171.167 178.489 170.063C178.453 168.959 179.32 168.036 180.424 168L180.552 171.998ZM251.174 141.843C252.264 142.024 253 143.054 252.819 144.143L249.872 161.899C249.691 162.989 248.661 163.726 247.571 163.545C246.481 163.364 245.745 162.334 245.926 161.244L248.546 145.461L232.761 142.84C231.671 142.659 230.935 141.629 231.115 140.539C231.296 139.45 232.326 138.713 233.416 138.894L251.174 141.843ZM243.387 146.691L249.683 142.189L252.01 145.442L245.714 149.945L243.387 146.691ZM180.424 168C203.057 167.279 224.968 159.863 243.387 146.691L245.714 149.945C226.652 163.577 203.976 171.251 180.552 171.998L180.424 168Z" fill="#3FB3F5"/>
</svg>
